<?xml version="1.0" standalone="no"?>
<!DOCTYPE svg PUBLIC "-//W3C//DTD SVG 20010904//EN"
 "http://www.w3.org/TR/2001/REC-SVG-20010904/DTD/svg10.dtd">
<svg version="1.0" xmlns="http://www.w3.org/2000/svg"
 width="300.000000pt" height="300.000000pt" viewBox="0 0 300.000000 300.000000"
 preserveAspectRatio="xMidYMid meet">
<metadata>
Created by potrace 1.10, written by Peter Selinger 2001-2011
</metadata>
<g transform="translate(0.000000,300.000000) scale(0.100000,-0.100000)"
fill="#000000" stroke="none">
<path d="M1738 2412 l-98 -56 0 -58 0 -58 -135 0 -135 0 0 -45 0 -45 -38 0
c-78 0 -167 -70 -196 -155 -12 -33 -18 -38 -47 -40 -50 -4 -79 -43 -74 -99 4
-44 3 -45 -43 -72 -111 -65 -239 -218 -283 -339 -30 -81 -32 -226 -5 -305 72
-208 255 -362 468 -394 92 -14 162 26 188 107 20 64 -8 145 -61 172 -49 26
-69 52 -69 89 0 65 49 84 320 126 329 50 392 60 515 75 238 30 441 62 461 73
10 6 36 14 56 17 57 9 58 18 4 89 -5 7 2 27 19 51 37 55 31 107 -21 154 l-36
34 -99 -5 c-79 -4 -101 -2 -113 11 -14 13 -28 14 -107 4 -51 -7 -97 -17 -103
-23 -7 -7 -6 -10 4 -11 17 -2 17 -1 59 6 19 3 31 1 31 -6 0 -6 7 -3 16 6 15
15 29 16 91 5 2 0 1 -15 -2 -32 -2 -18 -5 -75 -5 -125 l-2 -93 -26 53 c-15 28
-26 54 -25 57 0 3 -8 17 -18 32 -10 14 -19 31 -19 37 0 5 -10 20 -22 31 -17
15 -32 20 -56 17 -34 -5 -72 -32 -72 -51 0 -6 -8 -27 -19 -46 -10 -19 -22 -46
-26 -60 -4 -14 -23 -58 -42 -99 -18 -41 -32 -83 -31 -95 2 -12 -3 -22 -13 -24
-13 -2 -15 6 -11 48 4 61 38 144 54 134 7 -4 8 -2 4 5 -4 6 2 24 13 40 29 40
43 80 36 102 -5 14 -16 19 -46 19 -44 0 -68 -19 -94 -74 -10 -20 -21 -36 -25
-36 -4 0 -20 18 -35 40 -28 40 -34 44 -67 41 -10 -1 -18 4 -18 11 0 8 -5 6
-11 -5 -8 -14 -22 -18 -64 -16 -30 1 -60 -2 -67 -8 -7 -6 -33 -14 -58 -16
-159 -19 -204 -34 -187 -61 1 -3 -8 -15 -20 -28 -12 -13 -22 -26 -22 -30 -1
-8 -8 -8 -28 -1 -7 3 -11 9 -8 13 9 15 -38 50 -66 50 -39 0 -79 -20 -79 -39 0
-9 24 -53 53 -98 44 -66 54 -90 55 -129 1 -26 7 -53 12 -59 11 -13 -6 -35 -28
-35 -11 0 -10 3 2 15 13 13 8 28 -45 132 -33 65 -57 124 -54 132 3 9 3 12 -1
9 -4 -4 -15 4 -26 17 -33 43 -107 26 -133 -29 -18 -40 -48 -110 -50 -116 -9
-36 -30 -78 -37 -74 -14 9 -9 103 7 134 9 17 15 31 14 32 -6 10 17 56 35 71
11 10 15 15 7 11 -8 -4 0 11 19 34 18 23 36 42 39 42 3 0 0 -5 -7 -12 -7 -7
-8 -17 -1 -30 12 -22 66 -24 124 -4 22 8 41 10 43 5 2 -5 13 -4 25 3 12 6 31
13 42 15 11 1 50 10 87 18 37 8 84 17 105 20 21 3 63 9 93 14 30 5 58 7 63 4
4 -2 7 1 7 8 0 7 2 10 5 7 3 -3 26 -1 52 3 33 7 50 5 61 -4 13 -9 14 -9 8 1
-4 6 -4 12 1 12 32 2 95 13 133 25 62 18 104 29 112 27 3 -1 12 5 18 13 15 18
44 20 34 3 -6 -10 -5 -10 7 -2 8 7 31 16 51 22 29 8 36 7 32 -3 -7 -16 242 59
276 84 32 23 54 82 46 117 -4 15 -20 39 -36 55 -22 23 -38 29 -70 29 -46 0
-164 -31 -252 -65 -15 -6 -18 -1 -18 27 0 67 -77 92 -100 33 -5 -14 -17 -25
-25 -25 -18 0 -18 0 55 93 30 38 52 57 66 57 20 0 23 7 29 83 11 128 14 122
-105 183 -58 30 -109 54 -115 53 -5 0 -54 -26 -107 -57z m182 -7 c39 -19 70
-37 70 -40 0 -3 -64 -5 -142 -5 l-143 0 65 39 c36 22 68 40 73 40 4 1 39 -15
77 -34z m115 -148 l0 -76 -165 -5 c-93 -2 -173 0 -182 5 -15 8 -18 23 -18 79
l0 70 173 2 c94 2 177 3 182 2 6 0 10 -33 10 -77z m-359 -108 c33 -33 59 -67
58 -75 0 -8 -1 -56 -2 -108 -2 -94 -2 -94 -29 -100 -16 -4 -36 -9 -45 -12 -16
-5 -18 5 -18 103 l0 109 -39 38 -38 38 -82 -4 -81 -3 0 38 0 37 109 0 109 0
58 -61z m258 -59 l-47 -60 -63 0 -64 0 0 37 c0 24 -8 45 -22 60 l-21 23 132 0
132 0 -47 -60z m-538 29 c4 -8 32 -10 80 -7 70 5 75 3 109 -25 l36 -29 -2 -98
c-1 -54 1 -103 5 -108 4 -6 -4 -16 -16 -23 -13 -7 -23 -11 -23 -10 0 1 -7 0
-15 -2 -8 -3 -30 -10 -49 -16 -38 -12 -57 -14 -48 -4 4 3 2 12 -4 19 -13 16
-2 54 16 54 8 0 20 9 28 21 17 24 7 78 -17 91 -8 4 -11 17 -9 32 9 48 -55 99
-78 63 -4 -5 -13 5 -22 22 -14 29 -7 45 9 20z m-108 -18 c-6 -10 -19 -17 -27
-16 -9 2 -20 4 -26 4 -13 2 36 29 53 30 9 1 10 -3 0 -18z m82 -21 c0 -24 36
-36 57 -19 13 11 17 10 29 -6 8 -11 12 -26 8 -35 -6 -18 -7 -20 -5 -42 0 -9
10 -20 21 -23 28 -9 27 -53 -2 -64 -32 -12 -55 6 -62 49 -9 58 -49 83 -108 67
-36 -10 -62 -59 -54 -102 5 -27 3 -33 -13 -38 -11 -3 -25 1 -32 9 -6 8 -18 14
-25 14 -9 0 -14 11 -14 30 0 20 5 30 15 30 24 0 41 46 25 65 -11 14 -10 19 8
37 17 17 24 19 35 10 19 -16 46 -5 57 23 7 17 14 21 34 18 17 -4 26 -12 26
-23z m640 -80 c0 -16 1 -33 3 -37 1 -5 -10 -9 -25 -11 -26 -3 -28 -1 -28 31 0
38 6 47 32 47 13 0 18 -8 18 -30z m-823 -10 c-1 -12 -7 -18 -14 -16 -7 3 -13
0 -14 -7 0 -9 -2 -9 -5 0 -7 16 15 55 26 48 5 -3 8 -14 7 -25z m693 -5 c0 -11
-11 -15 -37 -15 -21 0 -48 -3 -60 -6 -19 -5 -23 -2 -23 15 0 19 6 21 60 21 47
0 60 -3 60 -15z m470 5 c24 -13 36 -71 21 -99 -28 -51 -100 -51 -126 0 -36 69
36 136 105 99z m-982 -22 c21 -21 14 -58 -14 -68 -39 -15 -62 -12 -69 10 -15
47 50 91 83 58z m570 -14 c3 -18 -5 -23 -40 -33 -24 -6 -64 -17 -90 -25 l-48
-15 0 29 0 30 70 0 c64 0 70 2 70 21 0 28 34 21 38 -7z m275 -19 c-5 -39 -2
-47 25 -75 19 -18 26 -32 19 -34 -7 -2 -63 -18 -125 -36 -63 -18 -117 -28
-122 -24 -10 12 -43 135 -37 140 2 3 51 18 107 34 56 16 105 32 108 35 3 3 11
5 17 5 9 0 11 -14 8 -45z m-1091 -32 c3 -16 8 -36 12 -45 6 -13 -2 -22 -33
-37 -22 -12 -43 -21 -46 -21 -12 0 -5 118 8 123 33 14 55 7 59 -20z m838 -78
c19 -76 18 -85 -10 -85 -11 0 -42 -9 -69 -20 -27 -10 -105 -26 -173 -35 -68
-9 -170 -25 -228 -35 -211 -38 -373 -70 -426 -84 -30 -8 -54 -10 -54 -5 0 5
16 26 35 47 31 35 47 42 167 76 138 39 654 191 698 206 14 5 29 7 34 6 5 -1
17 -33 26 -71z m-763 29 c2 -6 -5 -14 -17 -17 -15 -4 -20 0 -20 15 0 21 30 23
37 2z m231 3 c6 -7 13 -24 17 -39 7 -29 14 -25 -133 -68 -41 -12 -75 -20 -77
-18 -1 2 -5 13 -9 24 -6 19 2 26 60 55 36 19 68 38 70 44 6 15 61 16 72 2z
m-181 -51 c-59 -30 -131 -72 -160 -94 -174 -132 -263 -298 -237 -443 8 -42 8
-65 0 -79 -13 -25 -5 -40 20 -40 11 0 41 -23 67 -51 26 -28 70 -62 98 -76 27
-14 51 -27 53 -28 2 -2 -4 -18 -13 -36 -12 -23 -16 -48 -13 -85 l5 -52 -68 34
c-75 37 -169 123 -213 193 -82 130 -89 311 -19 444 49 90 136 177 246 244 53
33 292 123 327 123 8 0 -34 -24 -93 -54z m-262 -57 c-56 -35 -84 -39 -33 -4
20 14 42 25 47 25 6 0 11 5 11 11 0 5 5 7 11 4 5 -4 -11 -20 -36 -36z m229
-15 c4 -9 5 -18 4 -19 -7 -6 -108 -33 -108 -29 0 3 -10 0 -22 -6 -22 -11 -22
-10 -4 4 10 9 23 13 27 10 5 -3 9 0 9 6 0 11 58 50 76 50 7 0 15 -7 18 -16z
m-294 -27 c0 -2 -10 -12 -22 -23 l-23 -19 19 23 c18 21 26 27 26 19z m1621
-20 c58 -39 64 -103 13 -154 l-25 -25 31 -41 c16 -22 29 -41 27 -42 -1 -2 -18
-5 -38 -9 -34 -6 -38 -4 -63 34 -21 32 -32 40 -56 40 -29 0 -30 -2 -30 -44 0
-46 -10 -56 -54 -56 -21 0 -21 2 -18 143 1 78 4 147 7 154 4 11 39 16 136 21
23 1 48 -6 70 -21z m-302 -152 c38 -77 67 -143 64 -147 -2 -5 -21 -8 -41 -8
-32 0 -39 4 -48 28 l-11 28 -68 -11 c-63 -10 -70 -14 -81 -42 -10 -24 -21 -31
-50 -36 -21 -4 -40 -5 -42 -2 -4 4 36 101 93 230 13 28 26 60 29 72 6 19 43
33 79 29 4 -1 38 -64 76 -141z m-1396 101 c-15 -19 -32 -35 -37 -35 -6 -1 5
15 24 34 43 45 50 45 13 1z m1167 6 c0 -4 -27 -54 -59 -110 -49 -84 -61 -113
-63 -155 -3 -51 -4 -52 -35 -55 l-33 -3 0 53 c0 48 -6 62 -57 141 -54 82 -58
86 -63 60 -4 -23 -12 -29 -45 -35 -22 -4 -57 -7 -77 -7 -36 -1 -38 -2 -38 -35
l0 -34 38 8 c115 24 112 25 112 -14 l0 -34 -75 -7 -75 -7 0 -30 0 -31 63 7
c34 4 72 10 85 13 21 5 23 3 20 -28 l-3 -34 -85 -12 c-47 -6 -100 -14 -117
-17 l-33 -5 0 153 0 153 128 17 c70 9 141 19 158 22 28 5 33 2 64 -50 19 -31
37 -56 40 -56 3 0 20 29 37 64 32 64 36 67 96 73 9 1 17 -1 17 -5z m-550 -78
c0 -3 -27 -54 -60 -113 -51 -92 -60 -115 -60 -158 0 -54 -8 -63 -56 -63 -24 0
-25 3 -22 53 2 49 -1 57 -56 140 -32 49 -56 90 -54 92 1 1 21 6 43 9 l40 6 35
-59 35 -60 36 72 c26 50 44 74 60 78 31 9 59 10 59 3z m-680 -8 c0 -2 -8 -10
-17 -17 -16 -13 -17 -12 -4 4 13 16 21 21 21 13z m976 -73 c31 -47 39 -70 44
-119 l5 -60 -35 -2 c-33 -2 -36 -1 -38 30 -3 35 -18 58 -38 58 -19 0 -18 6 5
29 21 21 18 63 -5 82 -12 10 -12 14 3 25 10 7 18 14 19 14 1 0 19 -26 40 -57z
m-616 -119 c36 -74 66 -139 68 -144 2 -4 -15 -10 -37 -12 -36 -3 -42 -1 -52
24 -6 16 -14 28 -17 28 -3 0 -34 -5 -68 -11 -59 -10 -64 -13 -74 -44 -8 -25
-18 -34 -42 -39 -57 -11 -59 -10 -41 32 9 20 40 93 68 161 34 80 59 128 71
132 51 20 56 14 124 -127z m305 24 c-1 -46 2 -96 7 -112 4 -16 5 -26 1 -23 -3
4 -21 0 -40 -8 -20 -8 -39 -15 -44 -15 -13 0 -11 67 1 75 8 5 8 11 0 20 -8 9
-7 17 2 27 7 7 14 20 16 28 2 8 10 22 18 31 8 8 14 20 14 25 0 8 19 34 25 34
0 0 0 -37 0 -82z m1023 52 c22 -28 22 -29 3 -39 -38 -21 -51 -14 -51 29 0 48
15 51 48 10z m-277 -37 c0 -5 2 -16 4 -26 2 -9 -1 -15 -6 -11 -5 3 -9 2 -9 -3
0 -4 -12 -9 -27 -10 -16 -1 -41 -4 -56 -7 -24 -4 -28 -1 -25 17 2 17 14 25 48
34 55 14 70 15 71 6z m-1494 -75 c-3 -8 -6 -5 -6 6 -1 11 2 17 5 13 3 -3 4
-12 1 -19z m411 -122 c15 -20 25 -23 54 -19 20 2 39 0 43 -6 3 -6 1 -11 -5
-11 -13 0 -10 -81 4 -111 5 -12 -2 -18 -33 -28 -22 -6 -43 -16 -46 -21 -6 -10
-87 27 -93 43 -2 4 -9 7 -15 7 -13 0 -87 70 -87 82 0 4 5 7 11 6 6 -2 19 13
30 32 14 25 28 37 52 41 57 11 65 9 85 -15z m150 -206 c130 -80 18 -275 -118
-205 -55 28 -65 139 -17 182 52 48 85 53 135 23z m-418 -60 c12 -16 19 -30 16
-30 -2 0 -14 14 -26 30 -12 17 -19 30 -16 30 2 0 14 -13 26 -30z m85 -70 c10
-11 16 -20 13 -20 -3 0 -13 9 -23 20 -10 11 -16 20 -13 20 3 0 13 -9 23 -20z
m175 -80 c0 -5 -7 -7 -15 -4 -8 4 -12 10 -9 15 6 11 24 2 24 -11z"/>
<path d="M2287 1954 c-13 -13 -7 -52 8 -58 27 -10 46 5 43 33 -3 26 -35 41
-51 25z"/>
<path d="M2428 1643 c-23 -4 -26 -9 -30 -49 l-3 -45 45 7 c54 8 70 19 70 50 0
21 -27 46 -47 43 -4 -1 -20 -4 -35 -6z m42 -43 c0 -15 -7 -20 -25 -20 -18 0
-25 5 -25 20 0 15 7 20 25 20 18 0 25 -5 25 -20z"/>
<path d="M2112 1539 c-12 -29 -20 -54 -18 -56 9 -9 76 10 75 21 0 6 -8 28 -17
49 l-17 39 -23 -53z"/>
<path d="M1021 1369 c-7 -23 -14 -46 -17 -53 -3 -8 8 -10 36 -8 22 2 40 5 40
7 0 6 -41 95 -44 95 -2 0 -8 -18 -15 -41z"/>
<path d="M1172 928 c-28 -28 -7 -78 33 -78 12 0 26 5 33 12 7 7 12 21 12 33 0
12 -5 26 -12 33 -7 7 -21 12 -33 12 -12 0 -26 -5 -33 -12z m44 -29 c3 -6 0
-15 -7 -20 -14 -8 -32 9 -23 23 7 11 22 10 30 -3z"/>
<path d="M1138 2274 c-33 -89 -42 -149 -33 -220 10 -86 27 -52 30 63 3 102 3
104 24 166 24 69 5 61 -21 -9z"/>
<path d="M941 2198 c28 -35 70 -99 93 -142 41 -76 66 -104 66 -73 0 16 -42 97
-72 139 -26 37 -122 138 -131 138 -4 0 16 -28 44 -62z"/>
<path d="M660 2151 c0 -5 19 -15 43 -21 58 -16 181 -79 261 -136 52 -35 70
-44 79 -35 8 8 8 14 1 19 -5 4 -32 22 -59 41 -63 44 -145 84 -226 109 -35 11
-72 23 -81 27 -11 4 -18 3 -18 -4z"/>
<path d="M690 1963 c0 -5 22 -10 50 -12 59 -2 147 -24 209 -52 35 -15 46 -17
53 -7 8 14 -49 44 -112 59 -57 14 -200 22 -200 12z"/>
<path d="M790 1913 c0 -10 63 -53 78 -53 19 0 14 17 -10 32 -30 20 -68 31 -68
21z"/>
<path d="M715 1900 c-3 -5 10 -16 28 -24 19 -8 38 -19 41 -25 9 -14 43 -15 51
-1 6 10 -41 37 -87 51 -15 4 -30 4 -33 -1z"/>
<path d="M619 1893 c-1 -5 -1 -10 -1 -13 0 -3 -12 -5 -26 -5 -48 0 -39 -20 11
-23 26 -2 47 1 47 6 0 6 12 13 27 17 21 5 24 8 12 16 -17 11 -69 12 -70 2z"/>
<path d="M890 1896 c0 -3 23 -18 51 -36 54 -33 80 -36 32 -3 -30 20 -83 45
-83 39z"/>
<path d="M678 1857 c-7 -7 -22 -17 -33 -22 -17 -8 -16 -10 13 -13 19 -2 41 -1
50 3 14 5 14 7 2 15 -11 7 -8 10 13 10 16 0 26 4 22 10 -9 14 -51 12 -67 -3z"/>
<path d="M850 1842 c0 -6 -14 -15 -31 -21 -41 -14 -42 -14 -35 4 3 8 2 15 -3
15 -13 0 -70 -30 -76 -41 -4 -5 -10 -7 -15 -4 -9 5 -60 -50 -60 -66 0 -17 20
-9 36 16 9 14 23 25 31 25 8 0 28 8 46 17 18 9 35 16 39 15 3 -1 30 6 58 14
34 10 67 13 94 9 27 -5 38 -4 31 3 -14 14 -115 26 -115 14z"/>
<path d="M536 1815 c-11 -8 -17 -17 -15 -20 7 -7 77 14 84 25 10 16 -48 11
-69 -5z"/>
<path d="M586 1785 c-19 -14 -18 -15 10 -15 17 0 39 7 50 15 18 14 18 14 -11
14 -16 0 -39 -6 -49 -14z"/>
<path d="M790 1777 c-71 -27 -149 -105 -212 -212 -59 -100 -73 -138 -23 -65
20 30 55 72 78 92 43 38 72 52 45 21 -9 -10 -18 -27 -20 -38 -2 -11 -15 -25
-29 -32 -32 -16 -64 -51 -55 -61 4 -4 19 6 32 21 13 15 24 23 24 16 0 -7 13 0
29 15 l30 28 4 -33 3 -34 8 33 c5 17 12 32 17 32 5 0 17 17 28 38 11 20 38 56
60 80 33 34 38 44 25 49 -15 6 -113 -39 -161 -73 -37 -27 -26 1 12 30 49 37
132 73 191 82 27 3 58 13 69 20 33 23 -90 16 -155 -9z m-5 -112 c-34 -24 -55
-48 -55 -62 0 -7 -4 -13 -9 -13 -5 0 -18 -3 -28 -7 -16 -5 -15 -3 3 18 12 13
20 29 18 35 -5 11 51 43 76 43 11 0 9 -4 -5 -14z"/>
<path d="M472 1750 c-23 -17 -42 -33 -42 -38 0 -4 -14 -22 -31 -40 -17 -18
-28 -36 -25 -39 3 -3 22 12 41 35 20 22 59 55 86 72 27 18 49 34 49 36 0 14
-43 -1 -78 -26z"/>
<path d="M533 1740 c-30 -18 -44 -40 -25 -40 14 0 72 40 72 50 0 15 -11 12
-47 -10z"/>
<path d="M596 1729 c-10 -19 -17 -43 -15 -54 4 -17 6 -16 22 9 10 15 17 39 15
54 -3 26 -3 26 -22 -9z"/>
<path d="M547 1688 c-10 -21 -17 -42 -17 -48 0 -5 -4 -10 -8 -10 -19 0 -21 15
-7 37 24 36 -7 30 -40 -8 -27 -33 -27 -52 0 -29 22 18 27 8 15 -25 -6 -16 -8
-36 -5 -44 6 -14 8 -14 20 2 7 10 11 27 8 37 -4 14 0 20 11 20 19 0 49 63 43
88 -3 12 -9 5 -20 -20z"/>
<path d="M435 1575 c-21 -38 -13 -60 10 -29 13 17 14 16 8 -20 -4 -28 -3 -37
5 -32 12 7 14 116 2 116 -4 0 -15 -16 -25 -35z"/>
<path d="M655 1498 c-3 -9 -5 -31 -3 -50 l4 -33 12 27 c7 18 8 36 3 50 -8 20
-10 21 -16 6z"/>
<path d="M606 1469 c-14 -17 -26 -38 -26 -47 1 -22 60 41 60 63 0 21 -5 19
-34 -16z"/>
<path d="M436 1464 c-9 -24 -7 -64 4 -64 10 0 30 60 23 73 -7 12 -21 8 -27 -9z"/>
<path d="M551 1444 c-26 -33 -30 -64 -5 -43 17 14 38 59 30 66 -2 2 -13 -8
-25 -23z"/>
<path d="M625 1427 c-10 -24 3 -73 16 -60 7 7 7 22 1 44 -8 27 -11 30 -17 16z"/>
<path d="M572 1363 c-6 -20 -8 -41 -5 -47 4 -5 6 -30 4 -54 -2 -30 1 -42 8
-38 6 4 12 15 12 24 2 26 16 -39 18 -79 0 -20 8 -43 17 -50 18 -15 18 -19 -1
91 -4 19 -15 52 -26 72 -15 29 -18 42 -9 57 12 23 13 61 2 61 -5 0 -14 -16
-20 -37z"/>
<path d="M606 1343 c-4 -11 -1 -33 6 -49 l12 -29 4 32 c2 18 -1 40 -6 49 -9
16 -10 15 -16 -3z"/>
<path d="M2405 1262 c-5 -4 -12 -34 -14 -66 -3 -52 -1 -58 14 -52 9 3 30 6 47
6 19 0 28 4 25 13 -2 6 -16 11 -30 10 -24 -2 -26 1 -29 47 -2 31 -7 47 -13 42z"/>
<path d="M2490 1209 l0 -60 42 3 c24 2 43 9 46 17 3 10 -3 12 -27 9 l-31 -5 0
49 c0 36 -4 48 -15 48 -12 0 -15 -13 -15 -61z"/>
<path d="M2270 1225 c-17 -28 -25 -33 -36 -24 -7 6 -16 19 -19 30 -11 35 -35
22 -36 -18 0 -21 -2 -48 -5 -61 -3 -18 0 -23 13 -20 13 2 17 12 16 31 -2 31
13 36 22 7 9 -28 22 -25 39 8 l15 27 1 -32 c0 -23 5 -33 15 -33 12 0 15 13 15
60 0 33 -4 60 -9 60 -5 0 -19 -16 -31 -35z"/>
<path d="M2338 1200 c-3 -68 15 -85 26 -22 9 59 7 82 -8 82 -10 0 -15 -17 -18
-60z"/>
<path d="M2033 1243 c-21 -4 -23 -10 -23 -61 l0 -57 45 3 c27 3 45 9 45 16 0
8 -11 11 -30 8 -23 -3 -30 0 -30 12 0 11 9 16 30 16 17 0 30 5 30 10 0 6 -13
10 -30 10 -16 0 -30 5 -30 10 0 6 14 10 30 10 20 0 30 5 30 15 0 15 -19 17
-67 8z"/>
<path d="M1838 1183 c-3 -36 -1 -61 6 -65 14 -9 14 -11 17 56 4 79 -17 87 -23
9z"/>
<path d="M1900 1220 c-24 -24 -25 -48 -4 -78 17 -25 65 -30 83 -9 15 19 2 28
-21 16 -38 -20 -66 33 -32 62 12 10 20 10 34 1 12 -7 21 -8 25 -2 20 33 -54
41 -85 10z"/>
<path d="M1720 1216 c0 -7 -3 -34 -6 -60 -6 -38 -4 -46 10 -46 9 0 16 8 16 20
0 11 6 20 14 20 8 0 18 -9 21 -20 3 -11 13 -20 21 -20 17 0 18 12 2 28 -9 9
-10 15 -2 20 17 11 22 35 12 55 -11 21 -88 25 -88 3z m65 -26 c0 -8 -10 -16
-22 -18 -22 -3 -32 16 -16 32 12 11 38 2 38 -14z"/>
<path d="M1430 1203 c-8 -3 -24 -13 -34 -22 -17 -14 -19 -14 -14 0 4 11 0 15
-15 14 -12 -1 -22 -8 -22 -16 0 -8 6 -13 13 -11 6 1 12 -5 12 -13 0 -19 25
-19 48 1 9 8 28 24 42 34 23 18 23 19 5 19 -11 0 -27 -3 -35 -6z"/>
<path d="M1500 1200 c-12 -8 -12 -10 3 -16 21 -8 67 3 67 16 0 13 -50 13 -70
0z"/>
<path d="M1562 1183 c-19 -7 -4 -23 23 -23 32 0 56 10 49 21 -5 9 -50 11 -72
2z"/>
<path d="M1248 1149 l-33 -31 38 27 c20 15 37 29 37 31 0 10 -12 2 -42 -27z"/>
<path d="M1440 1160 c0 -5 9 -10 19 -10 11 0 23 -4 26 -10 3 -5 24 -10 46 -10
21 0 39 5 39 10 0 6 -11 10 -25 10 -14 0 -25 5 -25 10 0 6 -18 10 -40 10 -22
0 -40 -4 -40 -10z"/>
<path d="M1312 1141 c-23 -4 -47 -12 -53 -18 -8 -8 -1 -9 27 -2 25 5 51 5 72
-2 18 -6 35 -9 38 -6 3 2 -7 8 -21 11 -14 4 -23 11 -20 16 3 6 5 9 3 9 -2 -1
-22 -5 -46 -8z"/>
<path d="M1596 1142 c-6 -11 37 -32 64 -32 11 0 20 4 20 9 0 9 -8 12 -62 27
-9 3 -19 1 -22 -4z"/>
<path d="M1420 1130 c0 -16 63 -51 85 -48 13 2 26 -7 37 -24 17 -26 38 -38 38
-20 0 13 -59 78 -60 65 0 -8 -14 -3 -36 12 -39 26 -64 32 -64 15z"/>
<path d="M1550 1111 c0 -14 58 -34 77 -26 15 6 12 10 -17 20 -42 16 -60 18
-60 6z"/>
<path d="M1242 1092 c-10 -7 -10 -12 4 -23 11 -9 37 -13 85 -10 45 2 69 -1 69
-8 0 -9 -20 -15 -42 -12 -3 0 -21 3 -40 5 l-33 5 30 -14 c17 -8 39 -14 50 -15
12 0 25 -11 33 -29 7 -17 26 -36 42 -42 15 -7 35 -27 44 -44 13 -28 15 -28 15
-7 1 13 -4 32 -9 43 -8 13 -7 19 0 19 6 0 13 -7 16 -15 5 -13 41 -31 55 -27 4
0 15 -8 24 -18 10 -11 25 -20 34 -20 11 0 5 10 -18 33 -20 19 -35 27 -38 20
-5 -12 -46 25 -56 51 -3 8 -17 18 -31 22 -16 4 -23 11 -19 20 9 23 98 -33 159
-100 30 -33 54 -54 54 -47 0 6 -35 47 -77 90 -62 62 -91 83 -138 101 -63 24
-191 37 -213 22z m198 -43 c0 -4 -7 -9 -15 -13 -9 -3 -15 0 -15 8 0 7 7 13 15
13 8 0 15 -4 15 -8z m15 -53 c18 -16 22 -25 13 -29 -11 -3 -58 36 -58 49 0 11
21 2 45 -20z"/>
<path d="M1672 1093 c-9 -3 8 -18 42 -37 30 -17 73 -48 96 -69 52 -49 52 -34
-2 21 -34 37 -111 94 -120 91 -2 0 -9 -3 -16 -6z"/>
<path d="M1580 1063 c0 -4 10 -24 22 -43 24 -39 37 -26 16 16 -13 27 -38 45
-38 27z"/>
<path d="M1620 1065 c0 -10 62 -36 78 -33 13 3 9 8 -15 21 -30 16 -63 22 -63
12z"/>
<path d="M1640 1025 c0 -16 30 -75 39 -75 9 0 0 47 -14 70 -6 10 -25 14 -25 5z"/>
<path d="M1680 1011 c0 -11 58 -61 71 -61 15 0 -8 37 -33 54 -25 18 -38 20
-38 7z"/>
<path d="M1344 967 c9 -13 36 -38 61 -56 25 -18 57 -52 71 -77 14 -24 30 -44
35 -44 4 0 -8 27 -28 60 -34 57 -79 102 -131 129 -23 12 -23 12 -8 -12z"/>
<path d="M1704 928 c7 -34 22 -56 31 -46 7 7 -21 78 -31 78 -3 0 -4 -14 0 -32z"/>
<path d="M1740 927 c0 -15 47 -63 54 -56 7 7 -34 69 -45 69 -5 0 -9 -6 -9 -13z"/>
<path d="M1518 889 c-5 -31 11 -81 23 -73 10 6 1 74 -11 88 -5 4 -10 -2 -12
-15z"/>
<path d="M1550 894 c0 -4 12 -23 27 -43 16 -20 27 -42 25 -48 -3 -15 24 -69
39 -79 16 -9 3 45 -15 66 -8 8 -11 21 -9 28 6 16 -21 58 -47 72 -11 6 -20 8
-20 4z"/>
<path d="M1750 864 c0 -12 7 -27 15 -34 20 -17 21 9 0 36 -14 19 -14 19 -15
-2z"/>
<path d="M1620 863 c0 -4 11 -21 24 -38 30 -37 48 -25 20 12 -21 27 -44 41
-44 26z"/>
<path d="M1560 796 c0 -25 5 -48 10 -51 6 -4 10 11 10 39 0 25 -4 48 -10 51
-6 4 -10 -11 -10 -39z"/>
<path d="M1770 788 c0 -13 7 -33 15 -44 14 -18 14 -17 15 12 0 17 -7 37 -15
44 -13 10 -15 9 -15 -12z"/>
<path d="M1588 731 c-2 -16 1 -40 8 -53 l13 -23 2 25 c5 61 -15 106 -23 51z"/>
<path d="M1635 673 c10 -54 24 -76 25 -38 0 41 -10 75 -22 75 -6 0 -7 -15 -3
-37z"/>
<path d="M1617 653 c-11 -10 -8 -63 3 -63 6 0 10 16 10 35 0 36 -2 40 -13 28z"/>
<path d="M1604 556 c-8 -33 5 -74 17 -55 12 19 11 79 -1 79 -5 0 -12 -11 -16
-24z"/>
</g>
</svg>
